<svg width="17" height="17" viewBox="0 0 17 17" fill="none" xmlns="http://www.w3.org/2000/svg">
<g clip-path="url(#clip0_305_11)">
<path d="M0.394927 17C0.299468 17 0.206603 16.9623 0.137732 16.8926C0.0469428 16.8008 0.0119239 16.6674 0.0460349 16.5428L1.1512 12.5071C0.463149 11.2629 0.100379 9.85536 0.100898 8.42659C0.102843 3.7801 3.8841 0 8.5302 0C10.7837 0.0009079 12.9012 0.878716 14.4927 2.47143C16.084 4.06427 16.96 6.18162 16.9594 8.43333C16.9573 13.08 13.176 16.8603 8.5302 16.8603C8.5302 16.8603 8.5267 16.8603 8.52657 16.8603C7.16952 16.8598 5.82415 16.5291 4.62624 15.9026L0.486624 16.9882C0.456274 16.9961 0.425406 17 0.394927 17Z" fill="#E5E5E5"/>
<path d="M0.394897 16.6382L1.53937 12.4589C0.833413 11.2357 0.462082 9.84817 0.462601 8.42666C0.464417 3.97966 4.0833 0.361694 8.53019 0.361694C10.6881 0.362602 12.7137 1.20254 14.2369 2.72702C15.7599 4.25151 16.5984 6.27793 16.5977 8.43315C16.5957 12.88 12.9763 16.4985 8.53019 16.4985C8.52993 16.4985 8.53032 16.4985 8.53019 16.4985H8.52669C7.17652 16.498 5.84994 16.1593 4.67162 15.5167L0.394897 16.6382ZM4.86967 14.0567L5.11468 14.2018C6.14397 14.8127 7.32411 15.1358 8.5276 15.1364H8.53019C12.2259 15.1364 15.2339 12.1289 15.2354 8.43263C15.2361 6.64135 14.5393 4.95694 13.2733 3.68991C12.0072 2.42288 10.3238 1.72471 8.53266 1.72393C4.83401 1.72393 1.82614 4.73101 1.82471 8.42718C1.82419 9.69382 2.17853 10.9273 2.84986 11.9947L3.00939 12.2484L2.33184 14.722L4.86967 14.0567Z" fill="white"/>
<path d="M0.675415 16.3567L1.78033 12.3218C1.09862 11.1411 0.740265 9.80139 0.740654 8.4293C0.74234 4.13624 4.23606 0.643555 8.52873 0.643555C10.6122 0.644463 12.5677 1.45535 14.0378 2.92705C15.5084 4.39875 16.3177 6.35501 16.3169 8.43539C16.3151 12.7286 12.8213 16.2217 8.52911 16.2217C8.52873 16.2217 8.52924 16.2217 8.52911 16.2217H8.52561C7.22226 16.2211 5.94148 15.894 4.80401 15.2741L0.675415 16.3567Z" fill="#64B161"/>
<path d="M0.394897 16.3308L1.51776 12.2304C0.825132 11.0303 0.460813 9.66902 0.461322 8.27436C0.463104 3.91133 4.01365 0.361694 8.37656 0.361694C10.4938 0.362585 12.481 1.18666 13.9755 2.68235C15.4698 4.17805 16.2924 6.16621 16.2917 8.28072C16.2898 12.6436 12.7387 16.1938 8.37656 16.1938C8.37631 16.1938 8.37669 16.1938 8.37656 16.1938H8.37312C7.04845 16.1933 5.74693 15.861 4.59086 15.2305L0.394897 16.3308ZM4.78517 13.798L5.02554 13.9404C6.0354 14.5398 7.19326 14.8567 8.37401 14.8574H8.37656C12.0024 14.8574 14.9536 11.9067 14.9552 8.28021C14.9558 6.52276 14.2722 4.87016 13.0301 3.62706C11.7879 2.38395 10.1363 1.69897 8.37898 1.6982C4.75017 1.6982 1.79911 4.64849 1.79771 8.27487C1.7972 9.51759 2.14485 10.7277 2.8035 11.775L2.96001 12.0239L2.29526 14.4508L4.78517 13.798Z" fill="white"/>
<path fill-rule="evenodd" clip-rule="evenodd" d="M6.39826 4.96637C6.25014 4.63705 6.09413 4.63043 5.95313 4.62471C5.83785 4.61974 5.70589 4.62 5.57418 4.62C5.44235 4.62 5.22806 4.66963 5.04686 4.8675C4.86553 5.06538 4.35449 5.54384 4.35449 6.51693C4.35449 7.49014 5.06328 8.4304 5.16215 8.56249C5.26102 8.69445 6.53034 10.7551 8.54051 11.5479C10.2112 12.2068 10.5511 12.0758 10.9137 12.0428C11.2764 12.0098 12.0838 11.5643 12.2486 11.1025C12.4135 10.6408 12.4135 10.245 12.364 10.1622C12.3145 10.0798 12.1827 10.0303 11.9849 9.93145C11.7872 9.83258 10.8149 9.35399 10.6335 9.28807C10.4522 9.22203 10.3204 9.1892 10.1885 9.3872C10.0566 9.58495 9.67787 10.0303 9.56246 10.1622C9.44704 10.2944 9.33162 10.3109 9.13388 10.2119C8.93613 10.1128 8.29912 9.90409 7.54351 9.2303C6.95561 8.70615 6.55859 8.0587 6.44317 7.8607C6.32789 7.66295 6.44127 7.56522 6.53009 7.45719C6.69004 7.26262 6.95841 6.91281 7.02433 6.78097C7.09024 6.64889 7.05728 6.53347 7.00791 6.43447C6.95841 6.3356 6.57399 5.35754 6.39826 4.96637Z" fill="white"/>
</g>
<defs>
<clipPath id="clip0_305_11">
<rect width="17" height="17" fill="white"/>
</clipPath>
</defs>
</svg>
