<svg width="43" height="43" viewBox="0 0 43 43" fill="none" xmlns="http://www.w3.org/2000/svg">
<circle cx="21.5" cy="14.3333" r="6.16667" stroke="white" stroke-width="2" stroke-linecap="round"/>
<path d="M26.6695 13.9375C27.2497 12.9326 28.2053 12.1994 29.326 11.8991C30.4468 11.5988 31.641 11.756 32.6459 12.3361C33.6507 12.9163 34.384 13.8719 34.6843 14.9927C34.9846 16.1135 34.8274 17.3076 34.2472 18.3125C33.6671 19.3174 32.7115 20.0506 31.5907 20.3509C30.4699 20.6512 29.2757 20.494 28.2709 19.9139C27.266 19.3337 26.5328 18.3781 26.2324 17.2573C25.9321 16.1365 26.0894 14.9424 26.6695 13.9375L26.6695 13.9375Z" stroke="white" stroke-width="2"/>
<path d="M8.75276 13.9375C9.33293 12.9326 10.2885 12.1994 11.4093 11.8991C12.5301 11.5988 13.7243 11.756 14.7291 12.3361C15.734 12.9163 16.4672 13.8719 16.7676 14.9927C17.0679 16.1135 16.9106 17.3076 16.3305 18.3125C15.7503 19.3174 14.7947 20.0506 13.674 20.3509C12.5532 20.6512 11.359 20.494 10.3541 19.9139C9.34926 19.3337 8.61601 18.3781 8.3157 17.2573C8.01539 16.1365 8.1726 14.9424 8.75276 13.9375L8.75276 13.9375Z" stroke="white" stroke-width="2"/>
<path d="M30.2462 32.25L29.2659 32.4474L29.4276 33.25H30.2462V32.25ZM37.3905 31.143L36.425 31.4033L37.3905 31.143ZM26.4823 26.3564L25.8774 25.56L24.7209 26.4385L25.9542 27.2055L26.4823 26.3564ZM36.4922 31.25H30.2462V33.25H36.4922V31.25ZM36.425 31.4033C36.4218 31.3917 36.4192 31.3677 36.4258 31.3386C36.4321 31.3112 36.4439 31.2904 36.4553 31.2767C36.4777 31.2496 36.4972 31.25 36.4922 31.25V33.25C37.6682 33.25 38.7051 32.1775 38.356 30.8827L36.425 31.4033ZM30.4583 26.0833C32.4823 26.0833 33.8138 26.9349 34.7272 28.0073C35.6678 29.1118 36.1725 30.4668 36.425 31.4033L38.356 30.8827C38.0663 29.8079 37.4614 28.1332 36.2498 26.7106C35.011 25.256 33.1476 24.0833 30.4583 24.0833V26.0833ZM27.0872 27.1527C27.9115 26.5266 28.9962 26.0833 30.4583 26.0833V24.0833C28.5523 24.0833 27.0441 24.6739 25.8774 25.56L27.0872 27.1527ZM25.9542 27.2055C28.0888 28.5332 28.9365 30.8116 29.2659 32.4474L31.2265 32.0526C30.8534 30.1996 29.8344 27.2636 27.0104 25.5072L25.9542 27.2055Z" fill="white"/>
<path d="M16.5177 26.3563L17.0458 27.2055L18.2791 26.4385L17.1225 25.56L16.5177 26.3563ZM5.60945 31.143L6.57497 31.4033L6.57497 31.4033L5.60945 31.143ZM12.7537 32.25V33.25H13.5724L13.734 32.4474L12.7537 32.25ZM12.5416 26.0833C14.0038 26.0833 15.0885 26.5266 15.9128 27.1527L17.1225 25.56C15.9558 24.6739 14.4477 24.0833 12.5416 24.0833V26.0833ZM6.57497 31.4033C6.82745 30.4668 7.33214 29.1118 8.27276 28.0073C9.18619 26.9349 10.5177 26.0833 12.5416 26.0833V24.0833C9.85242 24.0833 7.98899 25.256 6.75016 26.7105C5.53853 28.1332 4.93368 29.8079 4.64392 30.8827L6.57497 31.4033ZM6.50774 31.25C6.50272 31.25 6.52226 31.2496 6.5447 31.2767C6.55602 31.2904 6.56788 31.3112 6.57412 31.3386C6.58077 31.3677 6.57811 31.3917 6.57497 31.4033L4.64392 30.8827C4.29486 32.1774 5.33174 33.25 6.50774 33.25V31.25ZM12.7537 31.25H6.50774V33.25H12.7537V31.25ZM13.734 32.4474C14.0634 30.8116 14.9111 28.5331 17.0458 27.2055L15.9895 25.5072C13.1655 27.2635 12.1466 30.1996 11.7734 32.0526L13.734 32.4474Z" fill="white"/>
<path d="M21.5 25.0833C28.604 25.0833 30.0745 30.7169 30.3788 33.0491C30.4503 33.5967 30.0106 34.0417 29.4583 34.0417H13.5416C12.9893 34.0417 12.5496 33.5967 12.6211 33.0491C12.9254 30.7169 14.3959 25.0833 21.5 25.0833Z" stroke="white" stroke-width="2" stroke-linecap="round"/>
</svg>
